<svg aria-roledescription="er" viewBox="0 0 470.798828125 298" style="max-width: 470.799px; background-color: white;" xmlns:xlink="http://www.w3.org/1999/xlink" xmlns="http://www.w3.org/2000/svg" width="100%" id="mermaid-0"><style>#mermaid-0{font-family:"trebuchet ms",verdana,arial,sans-serif;font-size:16px;fill:#000000;}#mermaid-0 .error-icon{fill:#552222;}#mermaid-0 .error-text{fill:#552222;stroke:#552222;}#mermaid-0 .edge-thickness-normal{stroke-width:2px;}#mermaid-0 .edge-thickness-thick{stroke-width:3.5px;}#mermaid-0 .edge-pattern-solid{stroke-dasharray:0;}#mermaid-0 .edge-pattern-dashed{stroke-dasharray:3;}#mermaid-0 .edge-pattern-dotted{stroke-dasharray:2;}#mermaid-0 .marker{fill:#000000;stroke:#000000;}#mermaid-0 .marker.cross{stroke:#000000;}#mermaid-0 svg{font-family:"trebuchet ms",verdana,arial,sans-serif;font-size:16px;}#mermaid-0 .entityBox{fill:#cde498;stroke:#13540c;}#mermaid-0 .attributeBoxOdd{fill:#ffffff;stroke:#13540c;}#mermaid-0 .attributeBoxEven{fill:#f2f2f2;stroke:#13540c;}#mermaid-0 .relationshipLabelBox{fill:hsl(78.1578947368, 58.4615384615%, 84.5098039216%);opacity:0.7;background-color:hsl(78.1578947368, 58.4615384615%, 84.5098039216%);}#mermaid-0 .relationshipLabelBox rect{opacity:0.5;}#mermaid-0 .relationshipLine{stroke:#000000;}#mermaid-0 .entityTitleText{text-anchor:middle;font-size:18px;fill:#000000;}#mermaid-0 :root{--mermaid-font-family:"trebuchet ms",verdana,arial,sans-serif;}</style><g/><defs><marker orient="auto" markerHeight="18" markerWidth="18" refY="9" refX="0" id="ONLY_ONE_START"><path d="M9,0 L9,18 M15,0 L15,18" fill="none" stroke="gray"/></marker></defs><defs><marker orient="auto" markerHeight="18" markerWidth="18" refY="9" refX="18" id="ONLY_ONE_END"><path d="M3,0 L3,18 M9,0 L9,18" fill="none" stroke="gray"/></marker></defs><defs><marker orient="auto" markerHeight="18" markerWidth="30" refY="9" refX="0" id="ZERO_OR_ONE_START"><circle r="6" cy="9" cx="21" fill="white" stroke="gray"/><path d="M9,0 L9,18" fill="none" stroke="gray"/></marker></defs><defs><marker orient="auto" markerHeight="18" markerWidth="30" refY="9" refX="30" id="ZERO_OR_ONE_END"><circle r="6" cy="9" cx="9" fill="white" stroke="gray"/><path d="M21,0 L21,18" fill="none" stroke="gray"/></marker></defs><defs><marker orient="auto" markerHeight="36" markerWidth="45" refY="18" refX="18" id="ONE_OR_MORE_START"><path d="M0,18 Q 18,0 36,18 Q 18,36 0,18 M42,9 L42,27" fill="none" stroke="gray"/></marker></defs><defs><marker orient="auto" markerHeight="36" markerWidth="45" refY="18" refX="27" id="ONE_OR_MORE_END"><path d="M3,9 L3,27 M9,18 Q27,0 45,18 Q27,36 9,18" fill="none" stroke="gray"/></marker></defs><defs><marker orient="auto" markerHeight="36" markerWidth="57" refY="18" refX="18" id="ZERO_OR_MORE_START"><circle r="6" cy="18" cx="48" fill="white" stroke="gray"/><path d="M0,18 Q18,0 36,18 Q18,36 0,18" fill="none" stroke="gray"/></marker></defs><defs><marker orient="auto" markerHeight="36" markerWidth="57" refY="18" refX="39" id="ZERO_OR_MORE_END"><circle r="6" cy="18" cx="9" fill="white" stroke="gray"/><path d="M21,18 Q39,0 57,18 Q39,36 21,18" fill="none" stroke="gray"/></marker></defs><path style="stroke: gray; fill: none;" marker-start="url(#ZERO_OR_MORE_START)" marker-end="url(#ONLY_ONE_END)" d="M81.72265625,88L81.72265625,96.33333333333333C81.72265625,104.66666666666667,81.72265625,121.33333333333333,86.1086211622807,138C90.49458607456141,154.66666666666666,99.26651589912281,171.33333333333334,103.6524808114035,179.66666666666666L108.0384457236842,188" class="er relationshipLine"/><path style="stroke: gray; fill: none;" marker-start="url(#ZERO_OR_MORE_START)" marker-end="url(#ONLY_ONE_END)" d="M361.5478980654762,77L367.59948536706344,87.16666666666667C373.6510726686508,97.33333333333333,385.75424727182536,117.66666666666667,391.8058345734127,138C397.857421875,158.33333333333334,397.857421875,178.66666666666666,397.857421875,188.83333333333334L397.857421875,199" class="er relationshipLine"/><path style="stroke: gray; fill: none;" marker-start="url(#ZERO_OR_MORE_START)" marker-end="url(#ONLY_ONE_END)" d="M317.6635044642857,77L304.31691778273813,87.16666666666667C290.9703311011905,97.33333333333333,264.27715773809524,117.66666666666667,241.64448964207395,136.16666666666666C219.01182154605263,154.66666666666666,200.4396587171053,171.33333333333334,191.15357730263156,179.66666666666666L181.8674958881579,188" class="er relationshipLine"/><g transform="translate(64.1171875,188 )" id="entity-Habits-b1c2acdc-8819-4282-8cab-15155fa6a22f"><rect height="90" width="135.2109375" y="0" x="0" class="er entityBox"/><text style="dominant-baseline: middle; text-anchor: middle; font-size: 12px;" transform="translate(67.60546875,12)" y="0" x="0" id="text-entity-Habits-b1c2acdc-8819-4282-8cab-15155fa6a22f" class="er entityLabel">Habits</text><rect height="22" width="53.6640625" y="24" x="0" class="er attributeBoxOdd"/><text style="dominant-baseline: middle; font-size: 10.2px;" transform="translate(5,35)" y="0" x="0" id="text-entity-Habits-b1c2acdc-8819-4282-8cab-15155fa6a22f-attr-1-type" class="er entityLabel">String</text><rect height="22" width="59.984375" y="24" x="53.6640625" class="er attributeBoxOdd"/><text style="dominant-baseline: middle; font-size: 10.2px;" transform="translate(58.6640625,35)" y="0" x="0" id="text-entity-Habits-b1c2acdc-8819-4282-8cab-15155fa6a22f-attr-1-name" class="er entityLabel">id</text><rect height="22" width="21.5625" y="24" x="113.6484375" class="er attributeBoxOdd"/><text style="dominant-baseline: middle; font-size: 10.2px;" transform="translate(118.6484375,35)" y="0" x="0" id="text-entity-Habits-b1c2acdc-8819-4282-8cab-15155fa6a22f-attr-1-key" class="er entityLabel">PK</text><rect height="22" width="53.6640625" y="46" x="0" class="er attributeBoxEven"/><text style="dominant-baseline: middle; font-size: 10.2px;" transform="translate(5,57)" y="0" x="0" id="text-entity-Habits-b1c2acdc-8819-4282-8cab-15155fa6a22f-attr-2-type" class="er entityLabel">String</text><rect height="22" width="59.984375" y="46" x="53.6640625" class="er attributeBoxEven"/><text style="dominant-baseline: middle; font-size: 10.2px;" transform="translate(58.6640625,57)" y="0" x="0" id="text-entity-Habits-b1c2acdc-8819-4282-8cab-15155fa6a22f-attr-2-name" class="er entityLabel">title</text><rect height="22" width="21.5625" y="46" x="113.6484375" class="er attributeBoxEven"/><text style="dominant-baseline: middle; font-size: 10.2px;" transform="translate(118.6484375,57)" y="0" x="0" id="text-entity-Habits-b1c2acdc-8819-4282-8cab-15155fa6a22f-attr-2-key" class="er entityLabel"/><rect height="22" width="53.6640625" y="68" x="0" class="er attributeBoxOdd"/><text style="dominant-baseline: middle; font-size: 10.2px;" transform="translate(5,79)" y="0" x="0" id="text-entity-Habits-b1c2acdc-8819-4282-8cab-15155fa6a22f-attr-3-type" class="er entityLabel">DateTime</text><rect height="22" width="59.984375" y="68" x="53.6640625" class="er attributeBoxOdd"/><text style="dominant-baseline: middle; font-size: 10.2px;" transform="translate(58.6640625,79)" y="0" x="0" id="text-entity-Habits-b1c2acdc-8819-4282-8cab-15155fa6a22f-attr-3-name" class="er entityLabel">created_at</text><rect height="22" width="21.5625" y="68" x="113.6484375" class="er attributeBoxOdd"/><text style="dominant-baseline: middle; font-size: 10.2px;" transform="translate(118.6484375,79)" y="0" x="0" id="text-entity-Habits-b1c2acdc-8819-4282-8cab-15155fa6a22f-attr-3-key" class="er entityLabel"/></g><g transform="translate(20,20 )" id="entity-Habitweekdays-204ed1a0-51e8-4b9b-af99-d6fcffe5c0f7"><rect height="68" width="123.4453125" y="0" x="0" class="er entityBox"/><text style="dominant-baseline: middle; text-anchor: middle; font-size: 12px;" transform="translate(61.72265625,12)" y="0" x="0" id="text-entity-Habitweekdays-204ed1a0-51e8-4b9b-af99-d6fcffe5c0f7" class="er entityLabel">Habit_week_days</text><rect height="22" width="39.880208333333336" y="24" x="0" class="er attributeBoxOdd"/><text style="dominant-baseline: middle; font-size: 10.2px;" transform="translate(5,35)" y="0" x="0" id="text-entity-Habitweekdays-204ed1a0-51e8-4b9b-af99-d6fcffe5c0f7-attr-1-type" class="er entityLabel">String</text><rect height="22" width="58.645833333333336" y="24" x="39.880208333333336" class="er attributeBoxOdd"/><text style="dominant-baseline: middle; font-size: 10.2px;" transform="translate(44.880208333333336,35)" y="0" x="0" id="text-entity-Habitweekdays-204ed1a0-51e8-4b9b-af99-d6fcffe5c0f7-attr-1-name" class="er entityLabel">id</text><rect height="22" width="24.919270833333332" y="24" x="98.52604166666667" class="er attributeBoxOdd"/><text style="dominant-baseline: middle; font-size: 10.2px;" transform="translate(103.52604166666667,35)" y="0" x="0" id="text-entity-Habitweekdays-204ed1a0-51e8-4b9b-af99-d6fcffe5c0f7-attr-1-key" class="er entityLabel">PK</text><rect height="22" width="39.880208333333336" y="46" x="0" class="er attributeBoxEven"/><text style="dominant-baseline: middle; font-size: 10.2px;" transform="translate(5,57)" y="0" x="0" id="text-entity-Habitweekdays-204ed1a0-51e8-4b9b-af99-d6fcffe5c0f7-attr-2-type" class="er entityLabel">Int</text><rect height="22" width="58.645833333333336" y="46" x="39.880208333333336" class="er attributeBoxEven"/><text style="dominant-baseline: middle; font-size: 10.2px;" transform="translate(44.880208333333336,57)" y="0" x="0" id="text-entity-Habitweekdays-204ed1a0-51e8-4b9b-af99-d6fcffe5c0f7-attr-2-name" class="er entityLabel">week_day</text><rect height="22" width="24.919270833333332" y="46" x="98.52604166666667" class="er attributeBoxEven"/><text style="dominant-baseline: middle; font-size: 10.2px;" transform="translate(103.52604166666667,57)" y="0" x="0" id="text-entity-Habitweekdays-204ed1a0-51e8-4b9b-af99-d6fcffe5c0f7-attr-2-key" class="er entityLabel"/></g><g transform="translate(344.916015625,199 )" id="entity-Days-0dbc2ad4-077f-4308-b1c5-984077fc281f"><rect height="68" width="105.8828125" y="0" x="0" class="er entityBox"/><text style="dominant-baseline: middle; text-anchor: middle; font-size: 12px;" transform="translate(52.94140625,12)" y="0" x="0" id="text-entity-Days-0dbc2ad4-077f-4308-b1c5-984077fc281f" class="er entityLabel">Days</text><rect height="22" width="53.6640625" y="24" x="0" class="er attributeBoxOdd"/><text style="dominant-baseline: middle; font-size: 10.2px;" transform="translate(5,35)" y="0" x="0" id="text-entity-Days-0dbc2ad4-077f-4308-b1c5-984077fc281f-attr-1-type" class="er entityLabel">String</text><rect height="22" width="30.65625" y="24" x="53.6640625" class="er attributeBoxOdd"/><text style="dominant-baseline: middle; font-size: 10.2px;" transform="translate(58.6640625,35)" y="0" x="0" id="text-entity-Days-0dbc2ad4-077f-4308-b1c5-984077fc281f-attr-1-name" class="er entityLabel">id</text><rect height="22" width="21.5625" y="24" x="84.3203125" class="er attributeBoxOdd"/><text style="dominant-baseline: middle; font-size: 10.2px;" transform="translate(89.3203125,35)" y="0" x="0" id="text-entity-Days-0dbc2ad4-077f-4308-b1c5-984077fc281f-attr-1-key" class="er entityLabel">PK</text><rect height="22" width="53.6640625" y="46" x="0" class="er attributeBoxEven"/><text style="dominant-baseline: middle; font-size: 10.2px;" transform="translate(5,57)" y="0" x="0" id="text-entity-Days-0dbc2ad4-077f-4308-b1c5-984077fc281f-attr-2-type" class="er entityLabel">DateTime</text><rect height="22" width="30.65625" y="46" x="53.6640625" class="er attributeBoxEven"/><text style="dominant-baseline: middle; font-size: 10.2px;" transform="translate(58.6640625,57)" y="0" x="0" id="text-entity-Days-0dbc2ad4-077f-4308-b1c5-984077fc281f-attr-2-name" class="er entityLabel">date</text><rect height="22" width="21.5625" y="46" x="84.3203125" class="er attributeBoxEven"/><text style="dominant-baseline: middle; font-size: 10.2px;" transform="translate(89.3203125,57)" y="0" x="0" id="text-entity-Days-0dbc2ad4-077f-4308-b1c5-984077fc281f-attr-2-key" class="er entityLabel"/></g><g transform="translate(297.857421875,31 )" id="entity-Dayhabits-d95d5758-b3ce-43dd-a306-52444bc148f6"><rect height="46" width="100" y="0" x="0" class="er entityBox"/><text style="dominant-baseline: middle; text-anchor: middle; font-size: 12px;" transform="translate(50,12)" y="0" x="0" id="text-entity-Dayhabits-d95d5758-b3ce-43dd-a306-52444bc148f6" class="er entityLabel">Day_habits</text><rect height="22" width="44.296875" y="24" x="0" class="er attributeBoxOdd"/><text style="dominant-baseline: middle; font-size: 10.2px;" transform="translate(5,35)" y="0" x="0" id="text-entity-Dayhabits-d95d5758-b3ce-43dd-a306-52444bc148f6-attr-1-type" class="er entityLabel">String</text><rect height="22" width="26.3671875" y="24" x="44.296875" class="er attributeBoxOdd"/><text style="dominant-baseline: middle; font-size: 10.2px;" transform="translate(49.296875,35)" y="0" x="0" id="text-entity-Dayhabits-d95d5758-b3ce-43dd-a306-52444bc148f6-attr-1-name" class="er entityLabel">id</text><rect height="22" width="29.3359375" y="24" x="70.6640625" class="er attributeBoxOdd"/><text style="dominant-baseline: middle; font-size: 10.2px;" transform="translate(75.6640625,35)" y="0" x="0" id="text-entity-Dayhabits-d95d5758-b3ce-43dd-a306-52444bc148f6-attr-1-key" class="er entityLabel">PK</text></g><rect height="14" width="27.7265625" y="133.108642578125" x="72.8233413696289" class="er relationshipLabelBox"/><text style="text-anchor: middle; dominant-baseline: middle; font-size: 12px;" y="140.108642578125" x="86.6866226196289" id="rel1" class="er relationshipLabel">habit</text><rect height="14" width="18.9140625" y="127.78831481933594" x="381.34375" class="er relationshipLabelBox"/><text style="text-anchor: middle; dominant-baseline: middle; font-size: 12px;" y="134.78831481933594" x="390.80078125" id="rel2" class="er relationshipLabel">day</text><rect height="14" width="27.7265625" y="123.74586486816406" x="234.46212768554688" class="er relationshipLabelBox"/><text style="text-anchor: middle; dominant-baseline: middle; font-size: 12px;" y="130.74586486816406" x="248.32540893554688" id="rel3" class="er relationshipLabel">habit</text></svg>